<svg id="Objects" xmlns="http://www.w3.org/2000/svg" viewBox="0 0 423.03 145.55"><defs><style>.cls-1{fill:#094d66;}.cls-2{fill:#00a099;}.cls-3{fill:#51bab4;}.cls-4{fill:#a2195b;}.cls-5{fill:#d60b51;}.cls-6{fill:#f29100;}.cls-7{fill:#f8b133;}</style></defs><path class="cls-1" d="M347.39,362.42a69.05,69.05,0,0,1,16.69,2v6.06c-.07,0-8.92-.83-15.29-.83-7.36,0-10.11,2.37-10.11,17.61,0,10.91,2,17.49,10.13,17.49,7,0,15.27-.52,15.27-.52v6.07A69.75,69.75,0,0,1,347.39,412c-12.29-.07-16.43-9.85-16.43-24.86C331,371.59,334.17,362.42,347.39,362.42Z" transform="translate(-189.27 -327.23)"/><path class="cls-1" d="M370.52,363h7.71v21.5h19.08V363H405V411.6h-7.71V391.69H378.23V411.6h-7.71Z" transform="translate(-189.27 -327.23)"/><path class="cls-1" d="M427.83,363h8.52l16.27,48.65h-8.43l-3.72-11.79h-17.2l-3.83,11.79h-8.56Zm10.61,29.82-6.34-19.29-6.64,19.29Z" transform="translate(-189.27 -327.23)"/><path class="cls-1" d="M449.91,363h35.16v7.24H471.14V411.6h-7.71V370.19H449.91Z" transform="translate(-189.27 -327.23)"/><path class="cls-1" d="M491.08,363h19.58c9.94,0,13.33,6.43,13.33,12.86,0,4.64-1.72,9.44-6.46,10.53,3.64.72,7.05,4.54,7.05,11.24,0,8.22-3.56,14-13.8,14h-19.7Zm19.23,19.8c3.94,0,6.06-2.26,6.06-6.45,0-5.22-3.3-6.34-6.06-6.34H498.84v12.79Zm.24,21.84c2.95,0,6.32-1.17,6.32-7.33,0-4.06-1.79-7.73-6.32-7.73H498.84v15.06Z" transform="translate(-189.27 -327.23)"/><path class="cls-1" d="M549.51,362.62c11.5,0,19.23,2.19,19.23,25,0,21.47-7.26,24.26-19.23,24.26s-19.32-2.13-19.32-24.26C530.19,364.81,538.34,362.62,549.51,362.62Zm0,42c8.74,0,11.52-2.65,11.52-17,0-16.88-3.53-17.75-11.52-17.75-7.79,0-11.61.66-11.61,17.75C537.9,402.27,540.41,404.62,549.51,404.62Z" transform="translate(-189.27 -327.23)"/><path class="cls-1" d="M580.22,363l10.22,18,10.39-18h8.5l-14.52,24.18L609,411.6h-8.5l-10.06-17.86-10,17.86h-8.5L586,387.13,571.72,363Z" transform="translate(-189.27 -327.23)"/><path class="cls-2" d="M247.91,442.34l-27.36-15.8L195.47,441l52.44,30.26a13.74,13.74,0,0,0,12.41,0v-29A13.77,13.77,0,0,1,247.91,442.34Z" transform="translate(-189.27 -327.23)"/><path class="cls-3" d="M287.68,426.54l-5.78,3.34,4.64,26.28L312.76,441a13.76,13.76,0,0,0,6.2-10.76l-25.08-14.48A13.77,13.77,0,0,1,287.68,426.54Z" transform="translate(-189.27 -327.23)"/><polygon class="cls-3" points="76.83 111.78 71.06 115.11 71.06 144.07 97.27 128.93 76.83 111.78"/><path class="cls-4" d="M189.27,430.27a13.79,13.79,0,0,0,6.2,10.76l25.08-14.49a13.77,13.77,0,0,1-6.2-10.75V384.21l-25.08-14.48Z" transform="translate(-189.27 -327.23)"/><path class="cls-5" d="M195.47,359a13.77,13.77,0,0,0-6.2,10.75l25.08,14.48a13.77,13.77,0,0,1,6.2-10.75l27.36-15.8v-29Z" transform="translate(-189.27 -327.23)"/><path class="cls-6" d="M260.32,328.7a13.77,13.77,0,0,0-12.41,0v29a13.8,13.8,0,0,1,12.41,0l27.36,15.8L312.76,359Z" transform="translate(-189.27 -327.23)"/><path class="cls-7" d="M312.76,359l-25.08,14.48a13.77,13.77,0,0,1,6.2,10.75v31.58L319,430.27V369.73A13.75,13.75,0,0,0,312.76,359Z" transform="translate(-189.27 -327.23)"/><path class="cls-2" d="M341.68,441l-4.12-17.36h4.2l1.32,7.16c.38,2.06.74,4.3,1,6.05h.05c.28-1.88.69-4,1.13-6.11l1.47-7.1h4.17l1.39,7.31c.39,2,.67,3.89.93,5.82h.05c.26-1.93.64-4,1-6l1.41-7.1h4L355.23,441H351l-1.47-7.47c-.33-1.76-.61-3.38-.82-5.36h-.05c-.31,2-.59,3.6-1,5.36L346,441Z" transform="translate(-189.27 -327.23)"/><path class="cls-2" d="M369,436.57,367.81,441h-4.07l5.3-17.36h5.15L379.58,441h-4.23L374,436.57Zm4.41-2.94L372.37,430c-.31-1-.62-2.32-.88-3.35h-.05c-.26,1-.52,2.35-.8,3.35l-1,3.68Z" transform="translate(-189.27 -327.23)"/><path class="cls-2" d="M386.66,437a10.06,10.06,0,0,0,4.36,1.08c1.8,0,2.75-.74,2.75-1.88s-.82-1.7-2.91-2.44c-2.88-1-4.76-2.61-4.76-5.13,0-3,2.47-5.23,6.57-5.23a10.59,10.59,0,0,1,4.43.88l-.88,3.17a8.18,8.18,0,0,0-3.63-.83c-1.7,0-2.53.77-2.53,1.68,0,1.1,1,1.59,3.22,2.44,3.07,1.14,4.51,2.73,4.51,5.18,0,2.91-2.24,5.38-7,5.38a11.32,11.32,0,0,1-4.91-1Z" transform="translate(-189.27 -327.23)"/><path class="cls-2" d="M408.43,427h-4.66v-3.29h13.34V427h-4.74V441h-3.94Z" transform="translate(-189.27 -327.23)"/><path class="cls-2" d="M434.17,433.68h-6.39v4.13h7.13V441H423.84V423.67h10.71v3.21h-6.77v3.61h6.39Z" transform="translate(-189.27 -327.23)"/><path class="cls-2" d="M455.06,441v-7.11l-5.49-10.25h4.48l1.78,4.17c.54,1.26.9,2.19,1.34,3.32h.05c.39-1.08.8-2.09,1.32-3.32l1.75-4.17h4.4L459,433.79V441Z" transform="translate(-189.27 -327.23)"/><path class="cls-2" d="M485.89,432.17c0,5.69-3.45,9.14-8.52,9.14s-8.17-3.89-8.17-8.84c0-5.2,3.33-9.09,8.45-9.09C483,423.38,485.89,427.37,485.89,432.17Zm-12.54.23c0,3.4,1.6,5.79,4.22,5.79s4.18-2.52,4.18-5.9c0-3.11-1.5-5.79-4.2-5.79S473.35,429,473.35,432.4Z" transform="translate(-189.27 -327.23)"/><path class="cls-2" d="M497,423.67v10c0,3,1.14,4.51,3.15,4.51s3.19-1.45,3.19-4.51v-10h3.92v9.73c0,5.36-2.71,7.91-7.24,7.91s-7-2.42-7-8v-9.68Z" transform="translate(-189.27 -327.23)"/><path class="cls-2" d="M515.32,423.9a33.91,33.91,0,0,1,5.22-.36c2.58,0,4.38.38,5.62,1.36a4.42,4.42,0,0,1,1.6,3.63,4.62,4.62,0,0,1-3.07,4.28v.08c1.21.49,1.88,1.64,2.32,3.24a50.11,50.11,0,0,0,1.42,4.9h-4a20.89,20.89,0,0,1-1.21-4c-.47-2.16-1.21-2.75-2.81-2.78H519.2V441h-3.88Zm3.88,7.47h1.55c2,0,3.12-1,3.12-2.5s-1.09-2.4-2.89-2.42a9.12,9.12,0,0,0-1.78.13Z" transform="translate(-189.27 -327.23)"/><path class="cls-2" d="M547.41,427h-4.66v-3.29h13.34V427h-4.74V441h-3.94Z" transform="translate(-189.27 -327.23)"/><path class="cls-2" d="M566.76,423.67V441h-3.94V423.67Z" transform="translate(-189.27 -327.23)"/><path class="cls-2" d="M589.48,434.38c-.08-2.09-.16-4.61-.16-7.13h-.07c-.54,2.21-1.27,4.68-1.94,6.72l-2.11,6.77h-3.06L580.28,434c-.56-2-1.16-4.51-1.57-6.77h-.05c-.1,2.34-.18,5-.31,7.18L578,441h-3.63l1.11-17.36h5.23l1.7,5.79c.54,2,1.08,4.17,1.47,6.21H584c.49-2,1.08-4.3,1.65-6.24l1.86-5.76h5.12l1,17.36h-3.83Z" transform="translate(-189.27 -327.23)"/><path class="cls-2" d="M611.56,433.68h-6.39v4.13h7.13V441H601.23V423.67h10.71v3.21h-6.77v3.61h6.39Z" transform="translate(-189.27 -327.23)"/></svg>